<?xml version="1.0" standalone="no"?>
<!DOCTYPE svg PUBLIC "-//W3C//DTD SVG 20010904//EN"
 "http://www.w3.org/TR/2001/REC-SVG-20010904/DTD/svg10.dtd">
<svg version="1.0" xmlns="http://www.w3.org/2000/svg"
 width="512.000000pt" height="512.000000pt" viewBox="0 0 512.000000 512.000000"
 preserveAspectRatio="xMidYMid meet">
<metadata>
Created by potrace 1.14, written by Peter Selinger 2001-2017
</metadata>
<g transform="translate(0.000000,512.000000) scale(0.100000,-0.100000)"
fill="#000000" stroke="none">
<path d="M3868 5115 c-1 -1 -25 -6 -52 -9 -161 -22 -371 -112 -510 -218 -71
-54 -695 -679 -766 -767 -117 -144 -200 -329 -234 -523 -14 -82 -15 -281 -1
-358 22 -120 59 -231 112 -334 l35 -69 -84 -84 -84 -84 -80 40 c-72 36 -173
73 -234 87 -120 25 -188 32 -295 29 -66 -2 -136 -7 -155 -10 -152 -27 -320
-94 -453 -181 -51 -34 -182 -157 -448 -423 -306 -306 -386 -392 -431 -461
-135 -211 -189 -401 -183 -645 4 -149 8 -178 41 -295 103 -359 403 -661 759
-764 134 -38 195 -45 355 -42 224 5 393 57 580 177 82 52 148 114 472 437 305
306 386 393 431 462 117 182 173 355 184 565 10 192 -27 375 -112 550 l-43 90
83 83 84 84 43 -26 c63 -37 184 -83 279 -107 132 -32 343 -35 484 -5 175 37
321 104 461 210 53 40 729 713 781 778 48 59 133 212 161 290 55 153 67 227
67 408 -1 146 -4 177 -28 270 -50 190 -158 380 -295 518 -159 159 -397 282
-612 317 -47 7 -305 16 -312 10z m272 -554 c194 -62 361 -230 423 -426 32
-101 31 -290 -1 -390 -44 -135 -85 -187 -387 -490 -155 -155 -303 -297 -331
-316 -121 -84 -244 -120 -388 -115 -103 4 -135 8 -182 26 l-26 10 76 78 c90
91 119 144 122 224 4 85 -20 143 -81 204 -60 60 -118 82 -207 78 -77 -4 -128
-32 -220 -122 -43 -42 -80 -73 -82 -71 -2 2 -12 42 -21 88 -38 187 12 400 126
537 13 15 147 151 298 302 334 334 365 356 576 406 50 12 242 -2 305 -23z
m-2348 -2277 c33 -8 65 -17 70 -20 5 -3 -29 -45 -75 -93 -95 -100 -116 -148
-111 -244 9 -191 215 -311 388 -228 22 11 75 54 116 95 41 41 78 73 82 70 19
-12 41 -161 35 -248 -9 -140 -52 -260 -131 -361 -58 -75 -573 -581 -627 -617
-120 -80 -253 -114 -403 -105 -165 10 -297 69 -415 187 -118 118 -179 252
-188 416 -9 154 24 281 105 403 48 72 582 606 652 652 60 39 166 84 220 94 19
3 36 8 38 10 10 10 190 1 244 -11z"/>
</g>
</svg>
