<svg version="1" xmlns="http://www.w3.org/2000/svg" width="341.333" height="341.333" viewBox="0 0 256.000000 256.000000"><path d="M38.9 5.3c-7.6 3.2-11.2 5.9-15.1 11.4-1.8 2.5-3.3 4.8-3.4 5.2 0 .3-.5 1.5-1 2.6-1.2 2.6-1.2 119.4 0 122 .5 1.1.9 2.3.8 2.6-.1.4 2.3 3.3 5.3 6.6 6.7 7.4 14.3 11.1 24.3 11.9 9.9.7 20.8-3.2 27.7-10.1 2-1.9 7.6-10.5 6.9-10.5-.3 0-.1-.7.6-1.5s.9-1.5.5-1.5-.3-.6.2-1.3c1.1-1.5 1-110.7-.1-115.7-1.2-5.1-3.5-8.9-8.7-14.2-6.4-6.6-12.3-9-23.4-9.5-7.8-.3-9.8 0-14.6 2zm19.7 23.4l2.4 2.8v53.2c0 37.4-.3 53.9-1.1 55.7-2.8 6.1-13.4 5.6-15.7-.8-.9-2.3-1.2-18.3-1.2-55.5V31.8l3.3-3.3c4.1-4.1 8.7-4 12.3.2zM117 4.9c-6.6 2.1-7.5 2.6-13 7.1-2.4 1.9-5.5 6-7.3 9.5-2.9 5.6-3.1 6.8-3.3 18-.3 12.4.5 18.1 3.3 24.3.9 2.1 1.6 4 1.5 4.3-.1.5 12.9 16.8 23.7 29.8 2 2.4 4.4 5.3 5.4 6.5.9 1.1 2.6 3 3.6 4.1 4.4 4.8 5.5 8.6 5.7 19.9.2 10.8.2 11-2.6 13.8-3.2 3.1-6.6 3.6-10.9 1.3-3.6-1.8-4.4-4.6-4.6-16.5-.2-5.2-.3-10-.4-10.5 0-.6-4.8-1-12.1-1-14.3 0-13.1-1.5-12.7 16 .2 11.1.5 12.4 3.2 17.5 6.6 12.1 17.6 18.5 32 18.5 6.8 0 8.9-.5 14.5-3.1 14.8-7.1 20.4-18.3 19.5-38.7-.8-14.9-4.9-25.3-14.3-35.2-1.8-1.9-15-18-16.4-20-.4-.6-1.9-2.4-3.2-4-5-5.9-8.6-10.8-8.8-11.9 0-.6-.3-2.2-.5-3.6-.8-6-.9-15.8-.1-18.8 1.9-7 10.7-8.8 15.3-3.2 1.6 2 2 4 2.2 11.2 0 4.9.1 9.8.2 11.1.1 2.2.3 2.3 12.9 2.2h12.7l-.1-12.5c-.1-11.6-.3-12.9-2.9-18.4-3.1-6.5-10.4-14.3-14.2-15.2C144 7 143 6.3 143 5.7c0-.6-.2-.8-.6-.5-.3.3-2.6-.1-5.1-.8-6.1-1.9-13.6-1.7-20.3.5zM169.2 75.4l.3 68.1 2.8 5.7c1.5 3.1 4.7 7.3 7 9.3 6 5.1 6.7 5.7 6.7 4.9 0-.3.6-.2 1.3.3 4.8 3.8 17.4 5.1 25.3 2.7 3.3-.9 6.2-1.7 6.7-1.6.4.1.7-.3.7-.8 0-.6.5-1 1.2-1 3.6 0 13.7-11.8 15.5-18.1.4-1.3.9-32.8 1-70l.4-67.5-13.1-.1h-13v132.2l-2.3 2.5c-1.2 1.4-3.3 2.6-4.6 2.8-3.2.5-7.6-1.5-9-4.1-.8-1.6-1.2-20.9-1.4-67.7l-.2-65.5-12.8-.1h-12.8l.3 68zM45.9 171.3c-4.6 1.3-11.8 5.2-15.4 8.4-7.1 6.3-11.2 17.4-11.4 30.9-.4 19.5 5.9 31.7 19.9 38.3 4.9 2.3 6.7 2.6 17 2.6 8.1 0 13.2-.5 17.2-1.8l5.6-1.7.1-9.3.1-9.3-7.1 2.3c-21 7.1-32.1-1.2-30.7-23.1 1.2-18.3 11.9-25.1 28.8-18.3l5.8 2.4 3.2-8.4c1.7-4.7 2.9-8.7 2.6-9-.3-.3-3.1-1.4-6.3-2.5-7.4-2.5-23.1-3.3-29.4-1.5zM117.4 171.3c-16.6 4.3-25.7 18-25.8 38.7 0 21.4 7.7 34.4 23.8 40 4.3 1.5 7.9 1.8 16.4 1.6 10.4-.2 11.3-.4 18.3-3.9 13-6.5 18-15.9 18.5-34.7.6-21.3-5.1-32.9-19.5-39.6-4.7-2.3-7.2-2.7-16.1-3-6.5-.2-12.5.1-15.6.9zm21.2 18.5c5 2.6 7.5 10.1 7.5 21.6 0 9.8-2.6 17.4-6.8 20.1-3.9 2.6-12.1 3-16.3.8-11.3-5.9-11.8-36.5-.7-42.5 5-2.7 11.3-2.7 16.3 0zM183.8 172.2c-.2.7-.4 18.6-.4 39.8l.1 38.5 23.8.3 23.7.2v-18l-9.7.1h-13l-3.3-.1v-14.6l11.3-.1c6.1-.1 11.5-.2 12-.2.4-.1.7-3.9.7-8.6V201h-24.1l.3-6.2.3-6.3h25l.3-8.8.3-8.7h-23.5c-17.8 0-23.5.3-23.8 1.2z"/></svg>